<?xml version="1.0" encoding="UTF-8" standalone="no"?>
<!-- Created with Inkscape (http://www.inkscape.org/) -->

<svg
   xmlns:dc="http://purl.org/dc/elements/1.1/"
   xmlns:cc="http://creativecommons.org/ns#"
   xmlns:rdf="http://www.w3.org/1999/02/22-rdf-syntax-ns#"
   xmlns:svg="http://www.w3.org/2000/svg"
   xmlns="http://www.w3.org/2000/svg"
   xmlns:xlink="http://www.w3.org/1999/xlink"
   xmlns:sodipodi="http://sodipodi.sourceforge.net/DTD/sodipodi-0.dtd"
   xmlns:inkscape="http://www.inkscape.org/namespaces/inkscape"
   width="744.09448"
   height="1052.3622"
   id="svg2"
   version="1.1"
   inkscape:version="0.48.4 r9939"
   sodipodi:docname="garagelab-etiketten.svg">
  <defs
     id="defs4">
    <clipPath
       clipPathUnits="userSpaceOnUse"
       id="clipPath3102">
      <path
         d="M 0,850 1701,850 1701,0 0,0 0,850 z"
         id="path3104"
         inkscape:connector-curvature="0" />
    </clipPath>
  </defs>
  <sodipodi:namedview
     id="base"
     pagecolor="#ffffff"
     bordercolor="#666666"
     borderopacity="1.0"
     inkscape:pageopacity="0.0"
     inkscape:pageshadow="2"
     inkscape:zoom="0.49497475"
     inkscape:cx="679.02863"
     inkscape:cy="497.67631"
     inkscape:document-units="px"
     inkscape:current-layer="g3112"
     showgrid="false"
     units="mm"
     showguides="true"
     inkscape:guide-bbox="true"
     height="55mm"
     inkscape:window-width="1278"
     inkscape:window-height="779"
     inkscape:window-x="0"
     inkscape:window-y="19"
     inkscape:window-maximized="0" />
  <metadata
     id="metadata7">
    <rdf:RDF>
      <cc:Work
         rdf:about="">
        <dc:format>image/svg+xml</dc:format>
        <dc:type
           rdf:resource="http://purl.org/dc/dcmitype/StillImage" />
        <dc:title></dc:title>
      </cc:Work>
    </rdf:RDF>
  </metadata>
  <g
     inkscape:label="Layer 1"
     inkscape:groupmode="layer"
     id="layer1"
     transform="translate(0,2.2302535e-5)">
    <g
       id="g3123">
      <g
         transform="translate(0,6.6943956)"
         id="g3112">
        <text
           xml:space="preserve"
           style="font-size:40px;font-style:normal;font-weight:normal;line-height:125%;letter-spacing:0px;word-spacing:0px;fill:#000000;fill-opacity:1;stroke:none;font-family:Sans"
           x="1633.3304"
           y="446.26953"
           id="text4545"
           sodipodi:linespacing="125%"><tspan
             sodipodi:role="line"
             id="tspan4547"
             x="1633.3304"
             y="446.26953"
             style="fill:none;stroke:#000000;stroke-opacity:1" /></text>
        <text
           xml:space="preserve"
           style="font-size:40px;font-style:normal;font-variant:normal;font-weight:normal;font-stretch:normal;line-height:125%;letter-spacing:0px;word-spacing:0px;fill:#000000;fill-opacity:1;stroke:none;font-family:Broadway;-inkscape-font-specification:Broadway"
           x="925.12714"
           y="585.46881"
           id="text14102"
           sodipodi:linespacing="125%"><tspan
             sodipodi:role="line"
             id="tspan14104"
             x="925.12714"
             y="585.46881" /></text>
        <text
           xml:space="preserve"
           style="font-size:14px;font-style:normal;font-variant:normal;font-weight:normal;font-stretch:normal;line-height:125%;letter-spacing:0px;word-spacing:0px;writing-mode:lr-tb;fill:#000000;fill-opacity:1;stroke:none;font-family:Wickenden Cafe NDP;-inkscape-font-specification:Wickenden Cafe NDP"
           x="-91.546753"
           y="1619.9309"
           id="text4000"
           sodipodi:linespacing="125%"><tspan
             sodipodi:role="line"
             id="tspan4002"
             x="-91.546753"
             y="1619.9309" /><tspan
             sodipodi:role="line"
             x="-91.546753"
             y="1637.4309"
             id="tspan4004" /><tspan
             sodipodi:role="line"
             x="-91.546753"
             y="1654.9309"
             id="tspan4006" /><tspan
             sodipodi:role="line"
             x="-91.546753"
             y="1672.4309"
             id="tspan4008" /></text>
        <g
           id="g4625"
           transform="translate(2.7893066e-7,2.9568577)">
          <g
             transform="matrix(0.75,0,0,0.75,-102.09223,-479.41864)"
             id="g4557">
            <g
               transform="translate(119.1085,-138.63829)"
               id="g4007">
              <rect
                 ry="11.91878"
                 rx="11.91878"
                 y="828.79108"
                 x="65.263435"
                 height="68.380798"
                 width="415.62805"
                 id="rect4009"
                 style="color:#000000;fill:#008080;fill-opacity:1;fill-rule:nonzero;stroke:none;stroke-width:50.75000000000000000;marker:none;visibility:visible;display:inline;overflow:visible;enable-background:accumulate" />
            </g>
            <text
               sodipodi:linespacing="125%"
               id="text4011"
               y="743.78876"
               x="262.44812"
               style="font-size:53.46132659999999959px;font-style:normal;font-variant:normal;font-weight:normal;font-stretch:normal;text-align:start;line-height:125%;letter-spacing:0px;word-spacing:0px;writing-mode:lr-tb;text-anchor:start;fill:#ffffff;fill-opacity:1;stroke:none;font-family:Arimo;-inkscape-font-specification:Arimo"
               xml:space="preserve"><tspan
                 style="font-size:53.46132659999999959px;font-style:normal;font-variant:normal;font-weight:bold;font-stretch:normal;text-align:start;line-height:125%;writing-mode:lr-tb;text-anchor:start;font-family:Arimo;-inkscape-font-specification:Arimo Bold;fill:#ffffff"
                 y="743.78876"
                 x="262.44812"
                 id="tspan4013"
                 sodipodi:role="line">Ätzmittel</tspan></text>
            <text
               xml:space="preserve"
               style="font-size:47.99979782px;font-style:normal;font-variant:normal;font-weight:bold;font-stretch:normal;text-align:start;line-height:125%;letter-spacing:0px;word-spacing:0px;writing-mode:lr-tb;text-anchor:start;fill:#000000;fill-opacity:1;stroke:none;font-family:Arimo;-inkscape-font-specification:Arimo Bold"
               x="262.21353"
               y="786.60876"
               id="text4015"
               sodipodi:linespacing="125%"><tspan
                 id="tspan4021"
                 sodipodi:role="line"
                 x="262.21353"
                 y="786.60876"
                 style="font-size:20px;font-style:normal;font-variant:normal;font-weight:bold;font-stretch:normal;text-align:start;line-height:125%;writing-mode:lr-tb;text-anchor:start;font-family:Arimo;-inkscape-font-specification:Arimo Bold">Natriumpersulfat</tspan></text>
            <g
               id="g4467"
               transform="translate(-258.86561,81.434755)">
              <text
                 xml:space="preserve"
                 style="font-size:15.25625801px;font-style:normal;font-variant:normal;font-weight:normal;font-stretch:normal;text-align:center;line-height:125%;letter-spacing:0px;word-spacing:0px;writing-mode:lr-tb;text-anchor:middle;fill:#000000;fill-opacity:1;stroke:none;font-family:Arimo;-inkscape-font-specification:Arimo"
                 x="752.68896"
                 y="767.69641"
                 id="text4190"
                 sodipodi:linespacing="125%"><tspan
                   sodipodi:role="line"
                   id="tspan4192"
                   x="752.68896"
                   y="767.69641"
                   style="font-size:10px;font-style:normal;font-variant:normal;font-weight:normal;font-stretch:normal;text-align:center;line-height:125%;writing-mode:lr-tb;text-anchor:middle;font-family:Arimo;-inkscape-font-specification:Arimo">Brandfördernd</tspan></text>
              <g
                 id="g4161"
                 transform="matrix(67.322704,0,0,67.322704,718.54713,690.68166)">
                <polygon
                   id="polygon3818"
                   style="font-style:normal;font-variant:normal;font-weight:normal;font-stretch:normal;letter-spacing:normal;word-spacing:normal;text-anchor:start;fill:#ff7d00;fill-opacity:1;fill-rule:evenodd;stroke:#000000;stroke-width:0.46036869;stroke-linecap:butt;stroke-linejoin:miter;stroke-miterlimit:10.43000031;stroke-opacity:1;stroke-dasharray:none;stroke-dashoffset:0"
                   transform="matrix(0.03616551,0,0,-0.03621875,-6.604534,19.80188)"
                   points="182.85,546.5 182.85,519.35 182.85,519.35 210.04,519.35 210.04,546.5 " />
                <path
                   id="path3886"
                   style="font-style:normal;font-variant:normal;font-weight:normal;font-stretch:normal;letter-spacing:normal;word-spacing:normal;text-anchor:start;fill:#000000;fill-opacity:1;fill-rule:evenodd;stroke:none"
                   d="m 0.50271243,0.15773031 c -0.0477385,0.0300615 -0.066183,0.0738876 -0.0470155,0.19558252 -0.0231458,-0.0115901 -0.0265821,-0.0213692 -0.0660025,-0.0235423 0.0184445,0.0369431 0.0198912,0.0530614 0.0198912,0.11318433 -0.0180826,0 -0.0218806,-0.013401 -0.0461113,-0.0507066 -0.0278476,0.0416515 -0.0226033,0.0818555 -0.0135622,0.13038835 -0.011573,-0.0278883 -0.0433989,-0.0409275 -0.0596735,-0.036219 0.0231458,0.0271642 0.0311025,0.0894612 0.0289326,0.13401026 0.00217,0.1220571 0.0580472,0.2211169 0.18354119,0.22184128 0.17757268,3.6219e-4 0.18191373,-0.18344975 0.1735956,-0.28160262 0,-0.025353 0.0218803,-0.05288 0.0334533,-0.0597613 -0.0184446,-0.006881 -0.0623859,0.0440061 -0.0578652,0.0226369 0.004521,-0.0213692 0.005787,-0.1064841 0.0216994,-0.1466869 -0.0184445,0.004708 -0.0426759,0.0148498 -0.0542486,0.0380299 -0.0112114,-0.0394784 -0.0280288,-0.10032659 -0.0533445,-0.1140898 0.006871,0.0438247 -0.001447,0.0461792 -0.003617,0.0624778 -0.0481071,-0.0497374 -0.0560312,-0.11691708 -0.0641942,-0.18290589 l 9.0415e-4,-0.008149 0.002712,-0.0108657 9.0414e-4,-0.003622 z m 0.0433989,0.22003034 c 0.0124549,0.0176629 0.009181,0.0350589 -0.006329,0.0498011 -3.4493e-4,-0.001754 -0.004765,-0.0465898 0.006329,-0.0498011 z m -0.0406865,0.0253533 c 3.7505e-4,0.002248 -1.3115e-4,0.004286 -9.0415e-4,0.006338 -0.0124666,0.0273312 0.0190539,0.0618438 0.0180829,0.0842092 l 0,0.002716 c -0.009041,-0.002173 -0.0224228,-0.00489 -0.0361657,-0.002716 -0.011573,-0.0532416 0.018987,-0.0905475 0.018987,-0.0905475 z m -0.0687149,0.0488956 c 0.0198909,0.0239045 0.0207953,0.04962 0.009946,0.0507066 l -0.0153704,0.004527 c -0.016636,-0.0159361 0.0115731,-0.0273456 0.005425,-0.055234 z m 0.13652571,0.007244 c -0.005787,0.0264398 0.001967,0.0361963 -0.001808,0.0479902 -0.0107935,-0.003194 -0.006018,-0.001635 -0.0135621,-0.004527 -0.003865,-0.0135141 -5.425e-4,-0.0365812 0.0153704,-0.0434628 z m 0.0415906,0.0208259 c -0.003904,0.0252322 0.0134482,0.0631367 0.0107902,0.0646567 -0.032169,-0.0180266 -0.0219845,-0.0324258 -0.0107902,-0.0646567 z m -0.24231052,0.0244478 c 0.008697,0.0127694 0.0141888,0.0196394 0.0117539,0.0262588 -0.002099,0.008759 -0.0125666,0.016176 -0.0216995,0.0271643 -2.8017e-4,-0.0162496 0.002451,-0.0321225 0.006874,-0.047683 l 0.003071,-0.00574 z m 0.12929256,0.0181095 C 0.59684888,0.52292858 0.63937626,0.57598115 0.6412428,0.66702066 0.64076863,0.77140982 0.58589307,0.82053775 0.50271243,0.82053775 0.41663852,0.82271061 0.35497534,0.75932709 0.35172042,0.67022896 0.35135877,0.58076836 0.41103283,0.5222744 0.50180829,0.5226366 z"
                   inkscape:connector-curvature="0" />
              </g>
            </g>
            <path
               inkscape:connector-curvature="0"
               id="path4023"
               d="m 213.92253,755.22708 c -11.86289,-2.07089 -21.69974,-11.16955 -24.81411,-22.95193 -1.68003,-6.35587 -1.01432,-14.42236 1.68112,-20.37043 l 0.92231,-2.03529 0.99759,0.4582 c 1.81847,0.83516 1.71449,-0.0663 1.71449,14.86121 l 0,13.72715 2.22225,1.25311 c 1.22226,0.68916 2.90222,1.68263 3.73325,2.20764 0.83104,0.52499 1.573,0.95454 1.64879,0.95454 0.0758,0 0.13779,-1.31044 0.13779,-2.91206 0,-2.60392 -0.0707,-3.00596 -0.66774,-3.79937 -1.1631,-1.5455 -2.19967,-4.00352 -2.67953,-6.35398 -0.58991,-2.88969 -0.22101,-5.11192 1.1449,-6.89651 4.60513,-6.01685 15.3527,2.13301 15.38521,11.66659 0.006,1.80872 -0.12414,2.43057 -0.78114,3.7277 -0.46617,0.92035 -1.16741,1.79127 -1.71529,2.1303 l -0.92674,0.57351 0.0665,3.8245 0.0665,3.8245 3.0825,1.76222 3.0825,1.76224 0,1.51016 0,1.51021 -1.07528,-0.0295 c -0.5914,-0.0159 -2.04306,-0.19833 -3.22588,-0.4048 z m 6.59513,-1.08181 0,-1.51601 1.93551,-1.10174 c 1.06456,-0.60599 6.4195,-3.68578 11.8999,-6.84392 l 9.96436,-5.74216 0,-4.81579 0,-4.8158 -2.02837,1.16941 c -1.32938,0.76646 -2.12592,1.42847 -2.31143,1.92104 -1.84763,4.90594 -5.93265,8.78081 -9.88128,9.37296 -2.66046,0.39896 -5.12608,-1.3424 -5.98206,-4.22488 -0.54923,-1.84937 -0.55184,-3.03636 -0.0123,-5.32693 0.7085,-3.00487 2.07748,-5.44734 4.3172,-7.70239 1.53633,-1.54687 2.41955,-2.18577 3.66675,-2.6524 2.37973,-0.89038 4.33859,-0.82064 5.96749,0.21238 l 1.30415,0.82707 2.47967,-1.4237 2.47967,-1.42368 0,-4.35183 0,-4.35182 1.30202,-0.78642 c 0.71612,-0.43258 1.36941,-0.78651 1.4517,-0.78651 0.29492,0 1.84432,3.75403 2.53946,6.15277 4.5687,15.76567 -4.4637,32.92272 -20.09466,38.16989 -2.62741,0.88198 -5.97863,1.55648 -7.73319,1.55648 l -1.26512,0 0,-1.51602 z m -5.16141,-37.62669 c -4.96572,-1.21042 -8.10598,-4.2996 -7.67056,-7.54591 l 0.14766,-1.10093 -2.23393,-1.33873 c -1.22866,-0.73628 -2.37735,-1.33874 -2.55262,-1.33874 -0.17529,0 -0.80001,0.30075 -1.38828,0.66829 -0.58828,0.36759 -1.97284,1.16134 -3.07681,1.76391 -1.10396,0.60255 -2.22167,1.22901 -2.48379,1.39212 -0.35895,0.22336 -0.80128,0.12428 -1.79215,-0.40132 -0.72356,-0.38385 -1.31557,-0.78076 -1.31557,-0.88196 0,-0.45226 2.78782,-3.90448 4.53219,-5.6123 5.97649,-5.85124 13.49459,-8.93494 21.84828,-8.9616 8.16977,-0.0259 15.68765,2.96632 21.62748,8.6086 2.07776,1.97363 4.75301,5.33888 4.75301,5.97883 0,0.44867 -2.27905,1.52692 -2.80268,1.326 -0.24921,-0.0956 -5.58251,-3.13696 -11.85179,-6.75846 -6.26927,-3.6216 -11.50036,-6.58466 -11.62466,-6.58466 -0.31726,0 -7.81774,4.31433 -7.99272,4.59746 -0.0788,0.1276 0.60667,0.68773 1.52343,1.24462 1.65368,1.00455 1.68233,1.01034 3.6219,0.7357 5.079,-0.71927 10.62441,1.33764 12.47286,4.62651 1.26402,2.24904 0.63913,5.22978 -1.47034,7.01367 -2.9081,2.45923 -8.18704,3.56436 -12.27091,2.5689 z"
               style="fill:#ffffff;fill-opacity:1" />
            <g
               id="g4474"
               transform="translate(-270.06034,81.319113)">
              <g
                 transform="matrix(0.10902483,0,0,0.10902483,792.34046,695.79986)"
                 id="g4319"
                 style="stroke:#000000">
                <g
                   transform="matrix(1.1875,0,0,1.1875,94.982351,-28.447132)"
                   id="g4323">
                  <path
                     id="path4309"
                     d="M 0.07530608,-8.7670652 H 508.76707 V 499.92469 H 0.07530608 z"
                     inkscape:connector-curvature="0"
                     style="color:#000000;fill:#ff7d00;fill-opacity:1;fill-rule:evenodd;stroke:#000000;stroke-width:8.81468964;stroke-linecap:butt;stroke-linejoin:miter;stroke-miterlimit:10.43000031;stroke-opacity:1;stroke-dasharray:none;stroke-dashoffset:0;marker:none;visibility:visible;display:inline;overflow:visible;enable-background:accumulate" />
                  <path
                     id="path4311"
                     d="M 97.744124,88.901753 411.09825,402.25588 m 0,-313.354127 L 97.744124,402.25588"
                     inkscape:connector-curvature="0"
                     style="stroke-width:114.96434021" />
                </g>
              </g>
              <text
                 sodipodi:linespacing="125%"
                 id="text4346"
                 y="767.69641"
                 x="835.50116"
                 style="font-size:15.25625801px;font-style:normal;font-variant:normal;font-weight:normal;font-stretch:normal;text-align:center;line-height:125%;letter-spacing:0px;word-spacing:0px;writing-mode:lr-tb;text-anchor:middle;fill:#000000;fill-opacity:1;stroke:none;font-family:Arimo;-inkscape-font-specification:Arimo"
                 xml:space="preserve"><tspan
                   style="font-size:10px;font-style:normal;font-variant:normal;font-weight:normal;font-stretch:normal;text-align:center;line-height:125%;writing-mode:lr-tb;text-anchor:middle;font-family:Arimo;-inkscape-font-specification:Arimo"
                   y="767.69641"
                   x="835.50116"
                   id="tspan4348"
                   sodipodi:role="line">Gesundheits-</tspan><tspan
                   dy="-3.0304575"
                   id="tspan4350"
                   style="font-size:10px;font-style:normal;font-variant:normal;font-weight:normal;font-stretch:normal;text-align:center;line-height:125%;writing-mode:lr-tb;text-anchor:middle;font-family:Arimo;-inkscape-font-specification:Arimo"
                   y="780.19641"
                   x="835.50116"
                   sodipodi:role="line">schädlich</tspan></text>
            </g>
          </g>
          <g
             transform="matrix(0.75,0,0,0.75,257.90777,-611.36383)"
             id="g4580">
            <g
               id="g3194"
               transform="translate(119.1085,39.827386)">
              <rect
                 style="color:#000000;fill:#008000;fill-opacity:1;fill-rule:nonzero;stroke:none;stroke-width:50.75000000000000000;marker:none;visibility:visible;display:inline;overflow:visible;enable-background:accumulate"
                 id="rect3119"
                 width="415.62805"
                 height="68.380798"
                 x="65.263435"
                 y="828.79108"
                 rx="11.91878"
                 ry="11.91878" />
            </g>
            <text
               xml:space="preserve"
               style="font-size:53.46132659999999959px;font-style:normal;font-variant:normal;font-weight:normal;font-stretch:normal;text-align:start;line-height:125%;letter-spacing:0px;word-spacing:0px;writing-mode:lr-tb;text-anchor:start;fill:#ffffff;fill-opacity:1;stroke:none;font-family:Arimo;-inkscape-font-specification:Arimo"
               x="262.44812"
               y="922.25446"
               id="text3071"
               sodipodi:linespacing="125%"><tspan
                 dx="0 -2.1428568 -0.44403091 1.7761238 0 -0.88806194 -0.44403097 -0.44403097 -1.3320928 -1.3320928"
                 sodipodi:role="line"
                 id="tspan3073"
                 x="262.44812"
                 y="922.25446"
                 style="font-size:53.46132659999999959px;font-style:normal;font-variant:normal;font-weight:bold;font-stretch:normal;text-align:start;line-height:125%;writing-mode:lr-tb;text-anchor:start;font-family:Arimo;-inkscape-font-specification:Arimo Bold;fill:#ffffff">Entwickler</tspan></text>
            <text
               sodipodi:linespacing="125%"
               id="text3091"
               y="968.39648"
               x="262.21353"
               style="font-size:20px;font-style:normal;font-variant:normal;font-weight:bold;font-stretch:normal;text-indent:0;text-align:start;text-decoration:none;line-height:125%;letter-spacing:0px;word-spacing:0px;text-transform:none;direction:ltr;block-progression:tb;writing-mode:lr-tb;text-anchor:start;baseline-shift:baseline;color:#000000;fill:#000000;fill-opacity:1;fill-rule:nonzero;stroke:none;marker:none;visibility:visible;display:inline;overflow:visible;enable-background:accumulate;font-family:Arimo;-inkscape-font-specification:Arimo Bold"
               xml:space="preserve"><tspan
                 style="font-size:20px;font-style:normal;font-variant:normal;font-weight:bold;font-stretch:normal;text-indent:0;text-align:start;text-decoration:none;line-height:125%;letter-spacing:0px;word-spacing:0px;text-transform:none;direction:ltr;block-progression:tb;writing-mode:lr-tb;text-anchor:start;baseline-shift:baseline;color:#000000;fill:#000000;fill-opacity:1;fill-rule:nonzero;stroke:none;marker:none;visibility:visible;display:inline;overflow:visible;enable-background:accumulate;font-family:Arimo;-inkscape-font-specification:Arimo Bold"
                 y="968.39648"
                 x="262.21353"
                 id="tspan3093"
                 sodipodi:role="line">Natronlauge</tspan><tspan
                 id="tspan3121"
                 style="font-size:20px;font-style:normal;font-variant:normal;font-weight:normal;font-stretch:normal;text-indent:0;text-align:start;text-decoration:none;line-height:125%;letter-spacing:0px;word-spacing:0px;text-transform:none;direction:ltr;block-progression:tb;writing-mode:lr-tb;text-anchor:start;baseline-shift:baseline;color:#000000;fill:#000000;fill-opacity:1;fill-rule:nonzero;stroke:none;marker:none;visibility:visible;display:inline;overflow:visible;enable-background:accumulate;font-family:Arimo;-inkscape-font-specification:Arimo"
                 y="993.39648"
                 x="262.21353"
                 sodipodi:role="line">Gefahrenhinweise:</tspan><tspan
                 style="font-size:20px;font-style:normal;font-variant:normal;font-weight:normal;font-stretch:normal;text-indent:0;text-align:start;text-decoration:none;line-height:125%;letter-spacing:0px;word-spacing:0px;text-transform:none;direction:ltr;block-progression:tb;writing-mode:lr-tb;text-anchor:start;baseline-shift:baseline;color:#000000;fill:#000000;fill-opacity:1;fill-rule:nonzero;stroke:none;marker:none;visibility:visible;display:inline;overflow:visible;enable-background:accumulate;font-family:Arimo;-inkscape-font-specification:Arimo"
                 y="1018.3965"
                 x="262.21353"
                 sodipodi:role="line"
                 id="tspan3095">R35 S1/2 S37/39 S26 S45</tspan></text>
            <path
               style="fill:#ffffff;fill-opacity:1"
               d="m 213.92253,933.69279 c -11.86289,-2.0709 -21.69974,-11.1696 -24.81411,-22.952 -1.68003,-6.3558 -1.01432,-14.4223 1.68112,-20.3704 l 0.92231,-2.0353 0.99759,0.4582 c 1.81847,0.8352 1.71449,-0.066 1.71449,14.8612 l 0,13.7272 2.22225,1.2531 c 1.22226,0.6892 2.90222,1.6826 3.73325,2.2076 0.83104,0.525 1.573,0.9546 1.64879,0.9546 0.0758,0 0.13779,-1.3105 0.13779,-2.9121 0,-2.6039 -0.0707,-3.0059 -0.66774,-3.7994 -1.1631,-1.5455 -2.19967,-4.0035 -2.67953,-6.3539 -0.58991,-2.8897 -0.22101,-5.112 1.1449,-6.8965 4.60513,-6.0169 15.3527,2.133 15.38521,11.6665 0.006,1.8088 -0.12414,2.4306 -0.78114,3.7277 -0.46617,0.9204 -1.16741,1.7913 -1.71529,2.1303 l -0.92674,0.5736 0.0665,3.8245 0.0665,3.8245 3.0825,1.7622 3.0825,1.7622 0,1.5102 0,1.5102 -1.07528,-0.03 c -0.5914,-0.016 -2.04306,-0.1983 -3.22588,-0.4048 z m 6.59513,-1.0818 0,-1.516 1.93551,-1.1018 c 1.06456,-0.606 6.4195,-3.6858 11.8999,-6.8439 l 9.96436,-5.7422 0,-4.8158 0,-4.8158 -2.02837,1.1695 c -1.32938,0.7664 -2.12592,1.4284 -2.31143,1.921 -1.84763,4.9059 -5.93265,8.7808 -9.88128,9.373 -2.66046,0.3989 -5.12608,-1.3424 -5.98206,-4.2249 -0.54923,-1.8494 -0.55184,-3.0364 -0.0123,-5.327 0.7085,-3.0048 2.07748,-5.4473 4.3172,-7.7023 1.53633,-1.5469 2.41955,-2.1858 3.66675,-2.6524 2.37973,-0.8904 4.33859,-0.8207 5.96749,0.2123 l 1.30415,0.8271 2.47967,-1.4237 2.47967,-1.4237 0,-4.3518 0,-4.3518 1.30202,-0.7864 c 0.71612,-0.4326 1.36941,-0.7866 1.4517,-0.7866 0.29492,0 1.84432,3.7541 2.53946,6.1528 4.5687,15.7657 -4.4637,32.9227 -20.09466,38.1699 -2.62741,0.882 -5.97863,1.5565 -7.73319,1.5565 l -1.26512,0 0,-1.516 z m -5.16141,-37.6267 c -4.96572,-1.2104 -8.10598,-4.2996 -7.67056,-7.5459 l 0.14766,-1.101 -2.23393,-1.3387 c -1.22866,-0.7363 -2.37735,-1.3387 -2.55262,-1.3387 -0.17529,0 -0.80001,0.3007 -1.38828,0.6683 -0.58828,0.3675 -1.97284,1.1613 -3.07681,1.7639 -1.10396,0.6025 -2.22167,1.229 -2.48379,1.3921 -0.35895,0.2233 -0.80128,0.1243 -1.79215,-0.4013 -0.72356,-0.3839 -1.31557,-0.7808 -1.31557,-0.882 0,-0.4523 2.78782,-3.9045 4.53219,-5.6123 5.97649,-5.8512 13.49459,-8.9349 21.84828,-8.9616 8.16977,-0.026 15.68765,2.9663 21.62748,8.6086 2.07776,1.9736 4.75301,5.3389 4.75301,5.9788 0,0.4487 -2.27905,1.527 -2.80268,1.326 -0.24921,-0.096 -5.58251,-3.1369 -11.85179,-6.7584 -6.26927,-3.6216 -11.50036,-6.5847 -11.62466,-6.5847 -0.31726,0 -7.81774,4.3143 -7.99272,4.5975 -0.0788,0.1276 0.60667,0.6877 1.52343,1.2446 1.65368,1.0045 1.68233,1.0103 3.6219,0.7357 5.079,-0.7193 10.62441,1.3376 12.47286,4.6265 1.26402,2.249 0.63913,5.2298 -1.47034,7.0137 -2.9081,2.4592 -8.18704,3.5643 -12.27091,2.5689 z"
               id="path3196"
               inkscape:connector-curvature="0" />
            <g
               id="g4517"
               transform="translate(-94.709236,78.74114)">
              <g
                 transform="matrix(0.13506321,0,0,0.13506321,626.56985,874.50625)"
                 id="g3059">
                <polygon
                   points="182.85,519.35 182.85,519.35 210.04,519.35 210.04,546.5 182.85,546.5 "
                   transform="matrix(17.940385,0,0,-17.966909,-3276.2671,9827.2837)"
                   style="font-style:normal;font-variant:normal;font-weight:normal;font-stretch:normal;letter-spacing:normal;word-spacing:normal;text-anchor:start;fill:#ff7d00;fill-opacity:1;fill-rule:evenodd;stroke:#000000;stroke-width:0.46034938;stroke-linecap:butt;stroke-linejoin:miter;stroke-miterlimit:10.43299961;stroke-opacity:1;stroke-dasharray:none;stroke-dashoffset:0"
                   id="polygon1989" />
                <g
                   transform="matrix(4.705235,0,0,4.704628,-6.355876,7.454254)"
                   style="fill:#000000;fill-opacity:1;stroke:none"
                   id="g22541">
                  <path
                     inkscape:connector-curvature="0"
                     d="m 99.544427,63.876462 0,16.908484 c -4.460677,1.5021 -6.921729,2.07985 -13.920366,2.387982 -1.192074,0 -4.383777,0 -6.729474,-0.308132 -0.884437,-0.269618 -5.729637,-1.193992 -6.921733,-0.88586 l -13.843467,0 c -2.960948,0 -3.076326,-3.54348 -0.115355,-3.54348 l 14.074199,0 c 0.576801,-0.30811 0.461445,-0.88586 -0.115377,-0.88586 l -20.265282,0 c -3.268607,0 -3.460867,-4.198235 -0.192281,-4.46783 l 17.496615,0 c 0.5768,-0.308132 0.461444,-0.616264 0,-0.885882 l -19.380868,0 c -2.653333,0 -2.845591,-3.85159 -0.192258,-3.85159 l 21.572733,0.03851 c 0.73063,-0.308109 0.653726,-0.962886 -0.230734,-0.962886 l -17.804229,0 c -3.268586,0 -2.845592,-4.429339 0.422993,-4.429339 l 5.345118,0 c 0.269186,2.580571 3.730052,0.577749 3.422415,0 0,0 0.192259,-0.115541 0.499896,-0.115541 1.499711,3.273862 4.537585,1.386581 4.845222,0.192567 l 7.57546,-0.07703 c 0.615252,0 0.422992,-0.616242 -0.15383,-0.88586 -3.576222,-0.924373 -4.729845,-0.924373 -6.229555,-2.696113 -0.884438,-0.885859 -0.576823,-1.848767 0,-3.042759 0.307637,-0.308132 0.615274,-0.231081 2.345696,0.385159 0.653726,0.192591 0.922889,0.269619 1.499711,0.269619 2.076511,0.577727 3.422415,0.731804 4.614489,0.731804 6.806378,1.463586 14.381815,3.427917 22.380262,6.12403 z"
                     style="font-style:normal;font-variant:normal;font-weight:normal;font-stretch:normal;letter-spacing:normal;word-spacing:normal;text-anchor:start;fill:#000000;fill-opacity:1;fill-rule:evenodd;stroke:none"
                     id="path2017" />
                  <path
                     inkscape:connector-curvature="0"
                     d="m 24.328253,70.809324 0,0 0.03847,0.924374 c 0,0 0.230711,0.308131 0.269163,0.269618 0,0.269596 0.03845,0.269596 0.346089,0.577727 0.307637,0 0.538369,0.07703 0.538369,0 0,0.308132 0.269163,0.654777 0.307615,0.577749 0,0.616242 0.230734,0.654755 0.538371,0.924374 0,0 0.653726,0.03851 0.922889,0.03851 0.307637,0.308132 0.346089,0.269618 0.653726,0.269618 0.615273,0 1.076718,-0.385159 1.076718,-0.693291 0.307638,-0.269617 0.384541,-0.462186 0.653704,-0.462186 0,-0.308132 0.346089,-0.308132 0.961363,-0.616263 0.269185,0 0.230711,-0.07703 0.499896,-0.07703 0.307637,0 0.922911,0.07703 0.922911,-0.231104 0,-0.577727 0.230712,-0.885859 0.538349,-1.155455 0,0 0.499895,-0.346646 0.307637,-0.346646 l 9.113599,0 0,6.509191 -32.532133,0 0,-6.509191 14.843259,0 z"
                     style="font-style:normal;font-variant:normal;font-weight:normal;font-stretch:normal;letter-spacing:normal;word-spacing:normal;text-anchor:start;fill:#000000;fill-opacity:1;fill-rule:evenodd;stroke:none"
                     id="path2019" />
                  <path
                     inkscape:connector-curvature="0"
                     d="m 29.071799,47.72901 c -0.298101,0.57795 -0.591462,1.404199 -0.891394,1.967478 -0.884437,1.502122 -1.47541,2.678079 -1.47541,4.488309 -0.307637,2.965732 3.350151,3.150185 3.657788,0.184452 0,-1.771741 -0.406807,-3.170638 -0.983607,-4.672761 l -0.307377,-1.813769 0,-0.153709 z m -0.430328,2.128862 0.238186,3.001233 c 0.153832,1.46361 -0.245522,2.301659 -0.668514,2.340173 -0.422993,0.03851 -0.614755,-0.250163 -0.614755,-1.752285 -1e-6,-1.502099 0.929705,-2.780289 1.045083,-3.589121 z"
                     style="font-style:normal;font-variant:normal;font-weight:normal;font-stretch:normal;letter-spacing:normal;word-spacing:normal;text-anchor:start;fill:#000000;fill-opacity:1;fill-rule:evenodd;stroke:none"
                     id="path2023" />
                  <path
                     inkscape:connector-curvature="0"
                     d="m 30.547209,36.938623 -1.168033,8.146589 0.860656,0.184451 0.153689,-0.891514 19.610664,1.967478 c 4.153044,0.308134 4.591086,-6.116913 0.399591,-6.425045 l -18.87296,-2.182671 0.06148,-0.676321 -1.045083,-0.122967 z m 0.891394,1.598576 c 0,0 14.29304,1.567834 19.088124,2.090445 2.010709,0.317597 2.034117,1.573417 1.997951,3.074185 -3.091557,0.110323 -14.9056,0.06478 -18.135254,0.06148 l -3.842215,0 0.891394,-5.226113 z"
                     style="font-style:normal;font-variant:normal;font-weight:normal;font-stretch:normal;letter-spacing:normal;word-spacing:normal;text-anchor:start;fill:#000000;fill-opacity:1;fill-rule:evenodd;stroke:none"
                     id="path2031" />
                  <path
                     inkscape:connector-curvature="0"
                     d="m 61.653781,19.999867 -0.799181,0.184451 0.184426,0.737805 -19.518451,4.426825 c -4.153044,0.88586 -2.854324,7.440953 1.260247,6.824689 l 19.856566,-4.457567 0.215164,0.891513 0.891394,-0.276676 -2.090165,-8.33104 z m -0.368853,1.783027 1.260247,5.349081 -5.286888,1.198932 c 0,0 -12.902157,-0.222879 -17.213122,-0.307419 0.47419,-0.858182 0.785468,-1.435398 2.459017,-1.84451 4.733609,-1.099021 18.780746,-4.396084 18.780746,-4.396084 z"
                     style="font-style:normal;font-variant:normal;font-weight:normal;font-stretch:normal;letter-spacing:normal;word-spacing:normal;text-anchor:start;fill:#000000;fill-opacity:1;fill-rule:evenodd;stroke:none"
                     id="path2033" />
                </g>
                <path
                   inkscape:connector-curvature="0"
                   d="m 124.88379,287.28494 c -1.40264,2.71904 -2.78297,6.60623 -4.19422,9.25625 -4.16148,7.06693 -6.94215,12.59937 -6.94215,21.11583 -1.4475,13.95266 15.76325,14.82045 17.21075,0.86777 0,-8.33538 -1.91412,-14.91667 -4.6281,-21.9836 l -1.44628,-8.53311 0,-0.72314 z m -2.02479,10.0155 1.12072,14.11969 c 0.72381,6.88574 -1.15524,10.82845 -3.14552,11.00964 -1.99028,0.18119 -2.89257,-1.17692 -2.89257,-8.24385 0,-7.06681 4.37449,-13.08022 4.91737,-16.88548 z"
                   style="font-style:normal;font-variant:normal;font-weight:normal;font-stretch:normal;letter-spacing:normal;word-spacing:normal;text-anchor:start;fill:#000000;fill-opacity:1;fill-rule:evenodd;stroke:none"
                   id="path2169" />
                <path
                   inkscape:connector-curvature="0"
                   d="m 296.97772,231.96903 c -1.40264,2.71904 -2.78297,6.60623 -4.19422,9.25625 -4.16148,7.06693 -6.94215,12.59937 -6.94215,21.11583 -1.4475,13.95266 15.76325,14.82045 17.21075,0.86777 0,-8.33538 -1.91412,-14.91667 -4.6281,-21.9836 l -1.44628,-8.53311 0,-0.72314 z m -2.02479,10.0155 1.12072,14.11969 c 0.72381,6.88574 -1.15524,10.82845 -3.14552,11.00964 -1.99028,0.18119 -2.89257,-1.17692 -2.89257,-8.24385 0,-7.06681 4.37449,-13.08022 4.91737,-16.88548 z"
                   style="font-style:normal;font-variant:normal;font-weight:normal;font-stretch:normal;letter-spacing:normal;word-spacing:normal;text-anchor:start;fill:#000000;fill-opacity:1;fill-rule:evenodd;stroke:none"
                   id="path2172" />
                <path
                   inkscape:connector-curvature="0"
                   d="m 301.28008,166.20456 c -1.40264,2.71904 -2.78297,6.60623 -4.19422,9.25625 -4.16148,7.06693 -6.94215,12.59937 -6.94215,21.11583 -1.4475,13.95266 15.76325,14.82045 17.21075,0.86777 0,-8.33538 -1.91412,-14.91667 -4.6281,-21.9836 l -1.44628,-8.53311 0,-0.72314 z m -2.02479,10.0155 1.12072,14.11969 c 0.72381,6.88574 -1.15524,10.82845 -3.14552,11.00964 -1.99028,0.18119 -2.89257,-1.17692 -2.89257,-8.24385 0,-7.06681 4.37449,-13.08022 4.91737,-16.88548 z"
                   style="font-style:normal;font-variant:normal;font-weight:normal;font-stretch:normal;letter-spacing:normal;word-spacing:normal;text-anchor:start;fill:#000000;fill-opacity:1;fill-rule:evenodd;stroke:none"
                   id="path2174" />
              </g>
              <text
                 xml:space="preserve"
                 style="font-size:15.25625801px;font-style:normal;font-variant:normal;font-weight:normal;font-stretch:normal;text-align:center;line-height:125%;letter-spacing:0px;word-spacing:0px;writing-mode:lr-tb;text-anchor:middle;fill:#000000;fill-opacity:1;stroke:none;font-family:Arimo;-inkscape-font-specification:Arimo"
                 x="659.97668"
                 y="871.9104"
                 id="text3087"
                 sodipodi:linespacing="125%"><tspan
                   sodipodi:role="line"
                   id="tspan3089"
                   x="659.97668"
                   y="871.9104"
                   style="font-size:15.25625801px;font-style:normal;font-variant:normal;font-weight:normal;font-stretch:normal;text-align:center;line-height:125%;writing-mode:lr-tb;text-anchor:middle;font-family:Arimo;-inkscape-font-specification:Arimo">C</tspan></text>
              <text
                 sodipodi:linespacing="125%"
                 id="text4186"
                 y="953.12231"
                 x="660.41626"
                 style="font-size:15.25625801px;font-style:normal;font-variant:normal;font-weight:normal;font-stretch:normal;text-align:center;line-height:125%;letter-spacing:0px;word-spacing:0px;writing-mode:lr-tb;text-anchor:middle;fill:#000000;fill-opacity:1;stroke:none;font-family:Arimo;-inkscape-font-specification:Arimo"
                 xml:space="preserve"><tspan
                   style="font-size:11px;font-style:normal;font-variant:normal;font-weight:normal;font-stretch:normal;text-align:center;line-height:125%;writing-mode:lr-tb;text-anchor:middle;font-family:Arimo;-inkscape-font-specification:Arimo"
                   y="953.12231"
                   x="660.41626"
                   id="tspan4188"
                   sodipodi:role="line">Ätzend</tspan></text>
            </g>
          </g>
        </g>
        <g
           id="g4675"
           transform="translate(2.7893066e-7,43.362968)">
          <use
             height="1052.3622"
             width="744.09448"
             transform="translate(0,167.68532)"
             id="use4609"
             xlink:href="#g4557"
             y="0"
             x="0" />
          <use
             height="1052.3622"
             width="744.09448"
             transform="translate(0,167.68532)"
             id="use4611"
             xlink:href="#g4580"
             y="0"
             x="0" />
        </g>
        <g
           id="g4679"
           transform="translate(2.7893066e-7,57.505048)">
          <use
             x="0"
             y="0"
             xlink:href="#g4557"
             id="use4613"
             transform="translate(0,361.63461)"
             width="744.09448"
             height="1052.3622" />
          <use
             x="0"
             y="0"
             xlink:href="#g4580"
             id="use4615"
             transform="translate(0,361.63461)"
             width="744.09448"
             height="1052.3622" />
        </g>
        <g
           id="g4683"
           transform="translate(2.7893066e-7,73.667468)">
          <use
             height="1052.3622"
             width="744.09448"
             transform="translate(0,553.56359)"
             id="use4617"
             xlink:href="#g4557"
             y="0"
             x="0" />
          <use
             height="1052.3622"
             width="744.09448"
             transform="translate(0,553.56359)"
             id="use4619"
             xlink:href="#g4580"
             y="0"
             x="0" />
        </g>
        <g
           id="g4687"
           transform="translate(2.7893066e-7,101.95172)">
          <use
             x="0"
             y="0"
             xlink:href="#g4557"
             id="use4621"
             transform="translate(0,733.37074)"
             width="744.09448"
             height="1052.3622" />
          <use
             x="0"
             y="0"
             xlink:href="#g4580"
             id="use4623"
             transform="translate(0,733.37074)"
             width="744.09448"
             height="1052.3622" />
        </g>
      </g>
    </g>
  </g>
</svg>
